<svg width="177" height="25" viewBox="0 0 177 25" fill="none" xmlns="http://www.w3.org/2000/svg">
<path d="M0.121499 24.5V2.1H8.1535C10.0308 2.1 11.6415 2.39867 12.9855 2.996C14.3295 3.59333 15.3642 4.45733 16.0895 5.588C16.8148 6.69733 17.1775 8.052 17.1775 9.652C17.1775 11.2093 16.8148 12.5533 16.0895 13.684C15.3642 14.8147 14.3295 15.6787 12.9855 16.276C11.6415 16.8733 10.0308 17.172 8.1535 17.172H1.0175L1.7535 16.404V24.5H0.121499ZM1.7535 16.5L1.0175 15.7H8.1535C10.5642 15.7 12.3882 15.1773 13.6255 14.132C14.8842 13.0653 15.5135 11.572 15.5135 9.652C15.5135 7.71067 14.8842 6.21733 13.6255 5.172C12.3882 4.10533 10.5642 3.572 8.1535 3.572H1.0175L1.7535 2.772V16.5ZM26.1645 24.5V0.755999H27.7645V24.5H26.1645ZM48.7163 24.5V20.692L48.6523 20.116V13.844C48.6523 12.2867 48.2256 11.1027 47.3722 10.292C46.5402 9.48133 45.3136 9.076 43.6923 9.076C42.5402 9.076 41.4629 9.27867 40.4602 9.684C39.4789 10.068 38.6362 10.5693 37.9322 11.188L37.1322 10.036C37.9642 9.28933 38.9669 8.71333 40.1402 8.308C41.3136 7.88133 42.5402 7.668 43.8202 7.668C45.8896 7.668 47.4789 8.19067 48.5883 9.236C49.6976 10.2813 50.2522 11.8387 50.2522 13.908V24.5H48.7163ZM42.7002 24.628C41.4629 24.628 40.3856 24.436 39.4682 24.052C38.5722 23.6467 37.8789 23.0813 37.3882 22.356C36.9189 21.6307 36.6842 20.7987 36.6842 19.86C36.6842 19.0067 36.8762 18.2387 37.2602 17.556C37.6656 16.852 38.3269 16.2867 39.2442 15.86C40.1616 15.412 41.3882 15.188 42.9242 15.188H49.0682V16.436H42.9563C41.2282 16.436 40.0122 16.756 39.3082 17.396C38.6256 18.036 38.2842 18.836 38.2842 19.796C38.2842 20.8627 38.6896 21.716 39.5002 22.356C40.3109 22.996 41.4522 23.316 42.9242 23.316C44.3322 23.316 45.5162 22.996 46.4762 22.356C47.4576 21.716 48.1829 20.788 48.6523 19.572L49.1003 20.66C48.6523 21.876 47.8843 22.8467 46.7963 23.572C45.7296 24.276 44.3642 24.628 42.7002 24.628ZM98.3958 7.668C99.7611 7.668 100.945 7.93467 101.948 8.468C102.972 8.98 103.761 9.76933 104.316 10.836C104.892 11.8813 105.18 13.1827 105.18 14.74V24.5H103.58V14.868C103.58 12.9907 103.1 11.5613 102.14 10.58C101.201 9.59867 99.8784 9.108 98.1718 9.108C96.8704 9.108 95.7398 9.37467 94.7798 9.908C93.8198 10.4413 93.0838 11.188 92.5718 12.148C92.0811 13.108 91.8358 14.26 91.8358 15.604V24.5H90.2358V0.755999H91.8358V12.436L91.5477 11.924C92.0598 10.6013 92.9024 9.56667 94.0758 8.82C95.2491 8.052 96.6891 7.668 98.3958 7.668ZM115.447 24.5V7.796H117.047V24.5H115.447ZM116.247 3.732C115.884 3.732 115.575 3.604 115.319 3.348C115.063 3.092 114.935 2.79333 114.935 2.452C114.935 2.08933 115.063 1.78 115.319 1.524C115.575 1.268 115.884 1.14 116.247 1.14C116.631 1.14 116.94 1.268 117.175 1.524C117.431 1.75867 117.559 2.05733 117.559 2.42C117.559 2.78267 117.431 3.092 117.175 3.348C116.94 3.604 116.631 3.732 116.247 3.732ZM127.471 24.5V0.755999H129.071V24.5H127.471ZM140.71 19.892L140.742 17.876L151.782 7.796H153.83L146.502 14.676L145.542 15.476L140.71 19.892ZM139.494 24.5V0.755999H141.094V24.5H139.494ZM152.55 24.5L145.254 15.348L146.342 14.164L154.534 24.5H152.55ZM167.859 24.628C166.259 24.628 164.829 24.2653 163.571 23.54C162.333 22.8147 161.341 21.812 160.595 20.532C159.869 19.252 159.507 17.7907 159.507 16.148C159.507 14.484 159.869 13.0227 160.595 11.764C161.341 10.484 162.333 9.48133 163.571 8.756C164.829 8.03067 166.259 7.668 167.859 7.668C169.459 7.668 170.888 8.03067 172.147 8.756C173.405 9.48133 174.397 10.484 175.123 11.764C175.848 13.0227 176.211 14.484 176.211 16.148C176.211 17.7907 175.848 19.252 175.123 20.532C174.397 21.812 173.405 22.8147 172.147 23.54C170.888 24.2653 169.459 24.628 167.859 24.628ZM167.859 23.188C169.139 23.188 170.291 22.9 171.315 22.324C172.339 21.7267 173.139 20.8947 173.715 19.828C174.291 18.7613 174.579 17.5347 174.579 16.148C174.579 14.74 174.291 13.5133 173.715 12.468C173.139 11.4013 172.339 10.58 171.315 10.004C170.291 9.40667 169.139 9.108 167.859 9.108C166.579 9.108 165.427 9.40667 164.403 10.004C163.4 10.58 162.6 11.4013 162.003 12.468C161.427 13.5133 161.139 14.74 161.139 16.148C161.139 17.5347 161.427 18.7613 162.003 19.828C162.6 20.8947 163.4 21.7267 164.403 22.324C165.427 22.9 166.579 23.188 167.859 23.188Z" fill="#272727"/>
<path d="M58.0925 16.628V14.388H75.3085V16.628H58.0925ZM58.0925 12.212V9.972H75.3085V12.212H58.0925ZM73.2605 24.82C71.5325 24.82 69.9325 24.5427 68.4605 23.988C67.0098 23.412 65.7512 22.612 64.6845 21.588C63.6178 20.5427 62.7858 19.316 62.1885 17.908C61.5912 16.5 61.2925 14.964 61.2925 13.3C61.2925 11.636 61.5912 10.1 62.1885 8.692C62.7858 7.284 63.6178 6.068 64.6845 5.044C65.7512 3.99867 67.0098 3.19867 68.4605 2.644C69.9325 2.068 71.5325 1.78 73.2605 1.78C75.0952 1.78 76.7698 2.1 78.2845 2.74C79.8205 3.35867 81.1005 4.28667 82.1245 5.524L79.4685 8.052C78.6578 7.17733 77.7512 6.52667 76.7485 6.1C75.7458 5.652 74.6578 5.428 73.4845 5.428C72.3112 5.428 71.2338 5.62 70.2525 6.004C69.2925 6.388 68.4498 6.932 67.7245 7.636C67.0205 8.34 66.4658 9.172 66.0605 10.132C65.6552 11.092 65.4525 12.148 65.4525 13.3C65.4525 14.452 65.6552 15.508 66.0605 16.468C66.4658 17.428 67.0205 18.26 67.7245 18.964C68.4498 19.668 69.2925 20.212 70.2525 20.596C71.2338 20.98 72.3112 21.172 73.4845 21.172C74.6578 21.172 75.7458 20.9587 76.7485 20.532C77.7512 20.084 78.6578 19.412 79.4685 18.516L82.1245 21.076C81.1005 22.292 79.8205 23.22 78.2845 23.86C76.7698 24.5 75.0952 24.82 73.2605 24.82Z" fill="#DBA553"/>
</svg>
